<svg xmlns="http://www.w3.org/2000/svg" viewBox="0 0 249 249"><defs><style>.cls-1{fill:#fff;}</style></defs><g id="Ebene_2" data-name="Ebene 2"><g id="Ebene_1-2" data-name="Ebene 1"><path class="cls-1" d="M32.46,1.54C21.6,8.71.2,36,0,43.2V55.06c0,15,12.64,28.26,24.12,28.26,13.79,0,25.27-12.7,25.28-27.77,0,15.07,11.09,27.77,24.87,27.77S98.8,70.62,98.8,55.55c0,15.07,11.79,27.77,25.58,27.77h.24c13.79,0,25.59-12.7,25.59-27.77,0,15.07,10.73,27.77,24.52,27.77s24.87-12.7,24.87-27.77c0,15.07,11.49,27.77,25.28,27.77C236.36,83.32,249,70.1,249,55.06V43.2C248.8,36,227.4,8.71,216.54,1.54,182.78.22,159.38,0,124.5,0s-82.43.61-92,1.54Zm66.16,74.7a31.51,31.51,0,0,1-4.85,6.94,26.89,26.89,0,0,1-40.44,0,29.57,29.57,0,0,1-4.63-6.8h0a31.43,31.43,0,0,1-5,6.81,27.49,27.49,0,0,1-20.24,9.15,8.06,8.06,0,0,1-2.73-.59c-1.11,12.83-1.58,25.09-1.74,34v0c0,4.54-.05,8.27-.07,13.45.22,26.92-2.39,87.24,10.68,102.06C49.82,246.59,87.1,249,124.5,249h0c37.4,0,74.68-2.41,94.94-7.66,13.07-14.82,10.46-75.14,10.68-102.06,0-5.18,0-8.91-.06-13.45v-.06c-.16-8.94-.63-21.19-1.74-34a8.06,8.06,0,0,1-2.73.59,27.48,27.48,0,0,1-20.24-9.16,31.19,31.19,0,0,1-5-6.81h0a29.79,29.79,0,0,1-4.63,6.8,26.88,26.88,0,0,1-40.44,0,31.27,31.27,0,0,1-4.85-6.94,31,31,0,0,1-4.81,6.94,27.44,27.44,0,0,1-20.24,9.17l-.82,0h0l-.83,0a27.48,27.48,0,0,1-20.24-9.16,32,32,0,0,1-4.81-7ZM77.83,106.12h0c8.23,0,15.54,0,24.6,11a190,190,0,0,1,22-1.23h0a190,190,0,0,1,22.05,1.23c9.06-11,16.37-11,24.61-11h0c3.89,0,19.45,0,30.29,33.85l11.65,46.43c8.62,34.55-2.77,35.39-17,35.43-21.07-.88-32.74-17.89-32.74-34.9a223.61,223.61,0,0,1-38.89,3.19h0a223.61,223.61,0,0,1-38.89-3.19c0,17-11.67,34-32.74,34.9-14.21,0-25.61-.88-17-35.43L47.54,140c10.84-33.85,26.4-33.85,30.29-33.85Zm46.67,26.6h0s-22.19,22.65-26.17,30.7l14.51-.65v14.07c0,.66,5.83.39,11.66.09h0c5.83.3,11.66.57,11.66-.09V162.78l14.51.65c-4-8.05-26.17-30.7-26.17-30.7Z"/></g></g></svg>